<svg xmlns="http://www.w3.org/2000/svg" xmlns:xlink="http://www.w3.org/1999/xlink" xmlns:inkscape="http://www.inkscape.org/namespaces/inkscape" version="1.1" width="907.087" height="907.087" viewBox="0 0 907.087 907.087">
<g>
<g inkscape:groupmode="layer" inkscape:label="Default : Page 1">
<path d="M31.98 43.6667H345.39C350.634 43.6667 354.886 47.9183 354.886 53.1628V366.572C354.886 371.817 350.634 376.068 345.39 376.068H31.98C26.7355 376.068 22.4839 371.817 22.4839 366.572V53.1628C22.4839 47.9183 26.7355 43.6667 31.98 43.6667"/>
<path stroke-width=".5" stroke-linecap="butt" stroke-miterlimit="10" stroke-linejoin="miter" fill="none" stroke="#000101" d="M31.98 43.6667H345.39C350.634 43.6667 354.886 47.9183 354.886 53.1628V366.572C354.886 371.817 350.634 376.068 345.39 376.068H31.98C26.7355 376.068 22.4839 371.817 22.4839 366.572V53.1628C22.4839 47.9183 26.7355 43.6667 31.98 43.6667"/>
<path d="M65.0317 76.7184H312.338C317.582 76.7184 321.834 80.97 321.834 86.2145V333.521C321.834 338.765 317.582 343.017 312.338 343.017H65.0317C59.7871 343.017 55.5356 338.765 55.5356 333.521V86.2145C55.5356 80.97 59.7871 76.7184 65.0317 76.7184" fill="#ffffff"/>
<path stroke-width=".5" stroke-linecap="butt" stroke-miterlimit="10" stroke-linejoin="miter" fill="none" stroke="#000000" d="M65.0317 76.7184H312.338C317.582 76.7184 321.834 80.97 321.834 86.2145V333.521C321.834 338.765 317.582 343.017 312.338 343.017H65.0317C59.7871 343.017 55.5356 338.765 55.5356 333.521V86.2145C55.5356 80.97 59.7871 76.7184 65.0317 76.7184"/>
<path d="M130.541 155.6H246.828V264.135H130.541V155.6Z" fill="#00060a"/>
<path stroke-width=".5" stroke-linecap="butt" stroke-miterlimit="10" stroke-linejoin="miter" fill="none" stroke="#000001" d="M130.541 155.6H246.828V264.135H130.541V155.6Z"/>
<path d="M553.467 43.6667H866.876C872.121 43.6667 876.372 47.9183 876.372 53.1628V366.572C876.372 371.817 872.121 376.068 866.876 376.068H553.467C548.222 376.068 543.971 371.817 543.971 366.572V53.1628C543.971 47.9183 548.222 43.6667 553.467 43.6667"/>
<path stroke-width=".5" stroke-linecap="butt" stroke-miterlimit="10" stroke-linejoin="miter" fill="none" stroke="#000101" d="M553.467 43.6667H866.876C872.121 43.6667 876.372 47.9183 876.372 53.1628V366.572C876.372 371.817 872.121 376.068 866.876 376.068H553.467C548.222 376.068 543.971 371.817 543.971 366.572V53.1628C543.971 47.9183 548.222 43.6667 553.467 43.6667"/>
<path d="M586.519 76.7184H833.825C839.069 76.7184 843.321 80.97 843.321 86.2145V333.521C843.321 338.765 839.069 343.017 833.825 343.017H586.519C581.274 343.017 577.023 338.765 577.023 333.521V86.2145C577.023 80.97 581.274 76.7184 586.519 76.7184" fill="#ffffff"/>
<path stroke-width=".5" stroke-linecap="butt" stroke-miterlimit="10" stroke-linejoin="miter" fill="none" stroke="#000000" d="M586.519 76.7184H833.825C839.069 76.7184 843.321 80.97 843.321 86.2145V333.521C843.321 338.765 839.069 343.017 833.825 343.017H586.519C581.274 343.017 577.023 338.765 577.023 333.521V86.2145C577.023 80.97 581.274 76.7184 586.519 76.7184"/>
<path d="M652.028 155.6H768.315V264.135H652.028V155.6Z" fill="#00060a"/>
<path stroke-width=".5" stroke-linecap="butt" stroke-miterlimit="10" stroke-linejoin="miter" fill="none" stroke="#000001" d="M652.028 155.6H768.315V264.135H652.028V155.6Z"/>
<path d="M31.98 531.018H345.39C350.634 531.018 354.886 535.27 354.886 540.514V853.924C354.886 859.168 350.634 863.42 345.39 863.42H31.98C26.7355 863.42 22.4839 859.168 22.4839 853.924V540.514C22.4839 535.27 26.7355 531.018 31.98 531.018"/>
<path stroke-width=".5" stroke-linecap="butt" stroke-miterlimit="10" stroke-linejoin="miter" fill="none" stroke="#000101" d="M31.98 531.018H345.39C350.634 531.018 354.886 535.27 354.886 540.514V853.924C354.886 859.168 350.634 863.42 345.39 863.42H31.98C26.7355 863.42 22.4839 859.168 22.4839 853.924V540.514C22.4839 535.27 26.7355 531.018 31.98 531.018"/>
<path d="M65.0317 564.07H312.338C317.582 564.07 321.834 568.321 321.834 573.566V820.872C321.834 826.117 317.582 830.368 312.338 830.368H65.0317C59.7871 830.368 55.5356 826.117 55.5356 820.872V573.566C55.5356 568.321 59.7871 564.07 65.0317 564.07" fill="#ffffff"/>
<path stroke-width=".5" stroke-linecap="butt" stroke-miterlimit="10" stroke-linejoin="miter" fill="none" stroke="#000000" d="M65.0317 564.07H312.338C317.582 564.07 321.834 568.321 321.834 573.566V820.872C321.834 826.117 317.582 830.368 312.338 830.368H65.0317C59.7871 830.368 55.5356 826.117 55.5356 820.872V573.566C55.5356 568.321 59.7871 564.07 65.0317 564.07"/>
<path d="M130.541 642.952H246.828V751.487H130.541V642.952Z" fill="#00060a"/>
<path stroke-width=".5" stroke-linecap="butt" stroke-miterlimit="10" stroke-linejoin="miter" fill="none" stroke="#000001" d="M130.541 642.952H246.828V751.487H130.541V642.952Z"/>
<path d="M646.359 642.952H762.646V751.487H646.359V642.952Z" fill="#00060a"/>
<path stroke-width=".5" stroke-linecap="butt" stroke-miterlimit="10" stroke-linejoin="miter" fill="none" stroke="#000001" d="M646.359 642.952H762.646V751.487H646.359V642.952Z"/>
<path d="M762.646 534.417H878.933V642.952H762.646V534.417Z" fill="#00060a"/>
<path stroke-width=".5" stroke-linecap="butt" stroke-miterlimit="10" stroke-linejoin="miter" fill="none" stroke="#000001" d="M762.646 534.417H878.933V642.952H762.646V534.417Z"/>
<path d="M530.072 534.417H646.359V642.952H530.072V534.417Z" fill="#00060a"/>
<path stroke-width=".5" stroke-linecap="butt" stroke-miterlimit="10" stroke-linejoin="miter" fill="none" stroke="#000001" d="M530.072 534.417H646.359V642.952H530.072V534.417Z"/>
<path d="M530.072 751.487H646.359V860.022H530.072V751.487Z" fill="#00060a"/>
<path stroke-width=".5" stroke-linecap="butt" stroke-miterlimit="10" stroke-linejoin="miter" fill="none" stroke="#000001" d="M530.072 751.487H646.359V860.022H530.072V751.487Z"/>
<path d="M762.646 751.487H878.933V860.022H762.646V751.487Z" fill="#00060a"/>
<path stroke-width=".5" stroke-linecap="butt" stroke-miterlimit="10" stroke-linejoin="miter" fill="none" stroke="#000001" d="M762.646 751.487H878.933V860.022H762.646V751.487Z"/>
<path d="M762.646 642.952H878.933V751.487H762.646V642.952Z" fill="#feffff"/>
<path d="M646.358 751.487H762.646V860.022H646.358V751.487Z" fill="#feffff"/>
<path d="M530.071 642.952H646.358V751.487H530.071V642.952Z" fill="#feffff"/>
<path d="M646.358 534.417H762.646V642.952H646.358V534.417Z" fill="#feffff"/>
<path d="M453.543 126.236 737.008 289.89V398.992L611.023 471.748V362.646L327.559 198.993 453.543 126.236" fill="#005f9e"/>
<path stroke-width=".5" stroke-linecap="butt" stroke-miterlimit="10" stroke-linejoin="miter" fill="none" stroke="#005f9e" d="M453.543 126.236 737.008 289.89V398.992L611.023 471.748V362.646L327.559 198.993 453.543 126.236"/>
<path d="M737.008 617.197 453.543 780.85 359.055 726.362V580.85L453.543 635.401 737.008 471.748V617.197" fill="#005f9e"/>
<path stroke-width=".5" stroke-linecap="butt" stroke-miterlimit="10" stroke-linejoin="miter" fill="none" stroke="#005f9e" d="M737.008 617.197 453.543 780.85 359.055 726.362V580.85L453.543 635.401 737.008 471.748V617.197"/>
<path d="M170.079 617.197V289.89L264.567 235.339 390.551 308.095 296.063 362.646V689.953L170.079 617.197" fill="#005f9e"/>
<path stroke-width=".5" stroke-linecap="butt" stroke-miterlimit="10" stroke-linejoin="miter" fill="none" stroke="#005f9e" d="M170.079 617.197V289.89L264.567 235.339 390.551 308.095 296.063 362.646V689.953L170.079 617.197"/>
</g>
</g>
</svg>
